# xmcd
#
# Track frame offsets:
#	150
#	11993
#	28042
#	42993
#	59333
#	77766
#	94788
#	111646
#	125950
#	139211
#	154879
#	167088
#
# Disc length: 2379 seconds
# Revision: 0
# Processed by: cddbd v1.5.2PL0 Copyright (c) Steve Scherf et al.
# Submitted via: dBpowerAMP V12.0
#
DISCID=ae09490c
DTITLE=Caitlin Rose - The Stand-In
DYEAR=2013
DGENRE=Pop/Rock
TTITLE0=No One to Call
TTITLE1=I Was Cruel
TTITLE2=Waitin'
TTITLE3=Only a Clown
TTITLE4=Pink Champagne
TTITLE5=Dallas
TTITLE6=Golden Boy
TTITLE7=Everywhere I Go
TTITLE8=Silver Sings
TTITLE9=When I'm Gone
TTITLE10=Menagerie
TTITLE11=Old Numbers
EXTD=
EXTT0=
EXTT1=
EXTT2=
EXTT3=
EXTT4=
EXTT5=
EXTT6=
EXTT7=
EXTT8=
EXTT9=
EXTT10=
EXTT11=
PLAYORDER=
